<svg xmlns="http://www.w3.org/2000/svg" xmlns:xlink="http://www.w3.org/1999/xlink" viewBox="0 0 117.52 56.36"><defs><style>.cls-1{fill:#444;}.cls-2{fill:url(#linear-gradient);}.cls-3{fill:url(#linear-gradient-2);}.cls-4{fill:url(#linear-gradient-3);}.cls-5{fill:url(#linear-gradient-4);}.cls-6{fill:url(#linear-gradient-5);}.cls-7{fill:url(#linear-gradient-6);}</style><linearGradient id="linear-gradient" x1="62.72" y1="395.32" x2="62.72" y2="362.18" gradientTransform="translate(0 -362)" gradientUnits="userSpaceOnUse"><stop offset="0.15" stop-color="#870303"/><stop offset="0.3" stop-color="#970c0c"/><stop offset="0.59" stop-color="#c12424"/><stop offset="0.97" stop-color="#ff4848"/></linearGradient><linearGradient id="linear-gradient-2" x1="75.58" y1="384.77" x2="75.58" y2="377.72" xlink:href="#linear-gradient"/><linearGradient id="linear-gradient-3" x1="81.85" y1="395.29" x2="81.85" y2="379.15" xlink:href="#linear-gradient"/><linearGradient id="linear-gradient-4" x1="89.85" y1="390.71" x2="89.85" y2="368.52" xlink:href="#linear-gradient"/><linearGradient id="linear-gradient-5" x1="98.66" y1="391.85" x2="98.66" y2="364.39" xlink:href="#linear-gradient"/><linearGradient id="linear-gradient-6" x1="0.13" y1="400.06" x2="117.63" y2="400.06" xlink:href="#linear-gradient"/></defs><g id="Layer_2" data-name="Layer 2"><g id="Layer_1-2" data-name="Layer 1"><path class="cls-1" d="M24.86,17.83c.76-1,1-1.19,1.3-.76.32.76-3.46,5.3-5.2,6.28-2.59,1.51-4.54-.65-4-4.44,0-.43.11-.76.11-1.19a44,44,0,0,0-3.47,4.44c-.76,1.19-1.3,1.62-1.62,1.51-.76-.32-.76-1.08,0-7.68a25.81,25.81,0,0,0,.32-4c-.43-.43-3.24,3.25-7,9C4,23,2.67,24.86,2.45,25.19A1,1,0,0,1,1,25.4l-.21-.21C.5,24.75.39,24.54.5,22.05c.22-3,.65-6.82,1.09-7.8.32-.75,1-1,1.51-.54s.43.54.43,1.84c-.1.87-.21,2.38-.43,3.58a14.25,14.25,0,0,0-.22,2.16A15,15,0,0,0,4.4,19.13,60.82,60.82,0,0,1,10.25,11c1.3-1.3,1.51-1.52,2.16-1.52A1.75,1.75,0,0,1,13.6,10c.43.54.43.65.43,3.25a36.21,36.21,0,0,1-.32,4.87,6.7,6.7,0,0,0-.32,2.06c.1-.11.86-1.08,1.73-2.17,1.62-2.16,2.38-2.81,2.92-2.6s.87,1,.65,3.36a12.09,12.09,0,0,0,0,2.82c.22.75,1,1,2.17.21a20.67,20.67,0,0,0,4.33-4.33Z"/><path class="cls-1" d="M38.28,16c0,1.08-6.06,4.87-9,5.73a3.27,3.27,0,0,1-2.06.11,3.38,3.38,0,0,1-2.16-2.06,6.76,6.76,0,0,1-.44-3.24c.11-2.93.76-4.22,2.06-3.79.76.11.87.65.43,2.16-1.62,5.31.11,7,4.66,4.87a22.45,22.45,0,0,0,5.09-3.24C38,15.55,38.28,15.44,38.28,16ZM28.43,9.6c-1,1-1.4,1.19-1.95.65a1,1,0,0,1-.32-.65c0-1.52,2.06-3.25,2.92-2.38.54.43.22,1.3-.65,2.38Z"/><path class="cls-1" d="M56.1,16a.66.66,0,0,1,.4.5c0,.2-.5.6-1.9,1.3a67.57,67.57,0,0,0-7.2,4.6c-.3.2-.3.3.1,1.3a19.08,19.08,0,0,1,.7,6.3c-.4,10.3-6.7,21.6-14.1,25.2-2.4,1.2-4,1.4-5.6.9a4.25,4.25,0,0,1-2.6-2.3,5.39,5.39,0,0,1-.5-2.8c.1-4.8,3.5-12.2,8.3-18a83.16,83.16,0,0,1,10.7-9.9l.7-.7-.4-.9a9.5,9.5,0,0,0-1.6-1.9,9.31,9.31,0,0,0-7.1-2.5,3.32,3.32,0,0,1-2-.4c-1-.8-.8-1.7.8-3.3.5-.5.6-.9.5-.9a13.33,13.33,0,0,0-2.8-.3c-3.4-.2-4.2-.6-3.9-1.7.1-.4.3-.5.8-.6a2.08,2.08,0,0,1,1.1.1,8.52,8.52,0,0,0,2.3.4c3.2.2,4.8.8,4.8,2.1a2.88,2.88,0,0,1-.9,2.1l-.5.6,1.1.1a11.1,11.1,0,0,1,8.6,5c.4.6.7,1,.9,1a5.51,5.51,0,0,0,1.4-.9c3-2.2,7.5-4.5,8.2-4.4ZM45.6,35.91a25.28,25.28,0,0,0,.9-7.8c-.2-2.2-.5-4.4-.9-4.4-.1,0-3.1,2.5-5.8,5a50.63,50.63,0,0,0-8.4,9.5c-5,7.6-6.3,15.3-2.7,16.3a4.14,4.14,0,0,0,2.7-.1c5.9-1.4,11.9-9.3,14.2-18.5Z"/><path class="cls-2" d="M79.2,32.41a3.59,3.59,0,0,0-.7-1h0c-.1-.2-.3-.3-.4-.4a39.8,39.8,0,0,0-8.6-5.3A59.83,59.83,0,0,0,60.4,22c-3.2-1-4.2-1.3-4.4-1.4l-.2-.2H56a17.82,17.82,0,0,0,6.9-.2,28,28,0,0,0,8.3-4.1,35.9,35.9,0,0,0,3.9-3.9,9.65,9.65,0,0,0,2.3-6.3A5.21,5.21,0,0,0,76.5,3,7.42,7.42,0,0,0,71.4.11a21.76,21.76,0,0,0-5.1.1,33.58,33.58,0,0,0-13.5,6,19.64,19.64,0,0,0-6.1,6.7c-1.1,2.2-.8,4.3.6,5.1a2,2,0,0,0,2.4-.3.6.6,0,0,0,.1-.4c-.1-.3-.3-.3-1-.1-1,.3-1.5.1-1.8-.6a3.13,3.13,0,0,1-.2-1.9c.7-3.6,6.1-8.5,12.5-11.4,7.2-3.3,13.2-3.5,16-.7a4.52,4.52,0,0,1,1.3,3.5,7.22,7.22,0,0,1-.8,3.2,15,15,0,0,1-2.3,3.3,22.92,22.92,0,0,1-9.7,5.8,22.66,22.66,0,0,1-6.3,1.2c-1.2,0-1.5,0-1.5-.3s.8-4,1.5-7c.8-3.7.8-3.9.4-3.9s-.6.1-.7,1.2S55,18.71,54.9,19c-.2.1-.2.2-.2.4s-.1.3-.3.4a.62.62,0,0,0-.1.8,20.48,20.48,0,0,1-.5,2.4c-1.2,4.4-1.5,5.9-1.5,7.1,0,.8.3,1.1.7.7s1-2.6,1.9-7.1c.3-1.3.5-2.3.5-2.3s3.6,1.1,6.6,2.1c6.3,2.1,12.8,5.4,15.6,7.8l.1.1.1.1.4.4a1.88,1.88,0,0,1,.7,1.3h.5A3.09,3.09,0,0,0,79.2,32.41Z"/><path class="cls-3" d="M78,20.21l-.2.2a15.34,15.34,0,0,1-2.1,1.4c-2.2,1-3,.2-2.2-2.3.2-.7.2-1-.2-1q-.9-.3-.9,1.8a2.51,2.51,0,0,0,.2,1.5,1.65,1.65,0,0,0,1,1,1,1,0,0,0,.9-.1A12.27,12.27,0,0,0,77.7,21c.6-.4,1.1-.8,1.1-1S78.6,19.71,78,20.21Zm-3.5-4.4c-.4-.4-1.4.4-1.4,1.1,0,.1.1.2.2.3.3.3.5.2.9-.3h0c.4-.5.5-.9.3-1.1Z"/><path class="cls-4" d="M86.2,20.31a21.27,21.27,0,0,0-3,3c-.3.4-.6.7-.6.6s-.6-5.1-.6-5.8-.1-1.1-.4-1.1c-.1,0-.3.1-.3.2a5.94,5.94,0,0,0-.4.8,13.35,13.35,0,0,1-.6,1.2l-.3.5-.2-.3c-.3-.6-.9-.7-1.4-.1a8.79,8.79,0,0,0-.6,1c-.1.2-.1.4-.2.6a2.2,2.2,0,0,0,.1,1.4.78.78,0,0,0,1,.2,7,7,0,0,0,1.9-2.6,4.05,4.05,0,0,1,.5-.9c.1,0,.1.2.1.4s.1.9.2,1.5.2,1.8.3,2.6l.2,1.5-.8,1.1c-1.1,1.6-2.1,3.2-3.1,4.8l-.3.5-.1.1c-.3.6-.6,1.2-.8,1.7h.6c.2-.4.4-.8.6-1.3l.3-.6h0l.6-1A51.26,51.26,0,0,1,81.8,26a25.67,25.67,0,0,1,.1,4.8h-.1v.7a11,11,0,0,1-.2,1.8h.8a10.87,10.87,0,0,0,.1-1.8v-4.3l-.1-2.4.4-.5A24.22,24.22,0,0,1,85.9,21c.3-.2.6-.5.9-.7l.1-.1h0v-.5A2.17,2.17,0,0,1,86.2,20.31Zm-6.9.7h0a4.23,4.23,0,0,0-.5.7l-.3.2.1-.2a8.43,8.43,0,0,1,.6-1.4c.1,0,.2.1.3.2S79.5,20.71,79.3,21Z"/><path class="cls-5" d="M93.5,20.61c-.1.1-.1.2-.2.3A13.66,13.66,0,0,1,91.8,23c-.5.4-.5.3-.4-1.5.1-1.4.1-1.6,0-1.9a.55.55,0,0,0-.8-.3.1.1,0,0,0-.1.1c-.7.4-2.4,3.3-3.4,5.9a3.55,3.55,0,0,1-.4.9c0-.3.3-3.6.5-5.9v-.8a5.74,5.74,0,0,0,.1-1.2c.3-2.4.5-4.2.8-5.7a.6.6,0,0,1,.1-.4,33.83,33.83,0,0,1,.8-3.4c.6-2,.7-2.2.5-2.3s-.4.1-.8,1.5c-.2.8-.7,2.1-.9,3-.2.5-.3.9-.4,1.2s-.1.3-.1.4a.6.6,0,0,0,.1.4,5.66,5.66,0,0,1-.3,1.8c-.3,1.8-.6,3.7-.9,5.4,0,.2-.1.4-.1.7-.2,1.4-.3,2.8-.4,4.2-.2,2.3-.1,3.3.2,3.5a.75.75,0,0,0,.8-.1,9.62,9.62,0,0,0,.7-1.8,27.66,27.66,0,0,1,2.9-6l.2-.3v1.1c0,1.3,0,1.8.3,2,.4.5,1.1.1,2-1.2L93,22a12.81,12.81,0,0,0,1.1-2Q94,19.71,93.5,20.61Z"/><path class="cls-6" d="M117.3,8.51h0a4.81,4.81,0,0,0-1.6-.8,8.6,8.6,0,0,0-1.6-.1,16.68,16.68,0,0,0-3.1.2c-2,.3-3.9.7-5.9,1.1l-9,2.1a1.88,1.88,0,0,1,.2-.8,1.27,1.27,0,0,0,.1-.6,14,14,0,0,1,.6-2.8.19.19,0,0,0-.1-.3h-.2c-.2,0-.2.2-1.1,2.9a10.34,10.34,0,0,0-.3,1.2c0,.1-.1.5-.1.6-.6.1-1.1.3-1.7.4a32.34,32.34,0,0,1-5.3.8h-.8a12.19,12.19,0,0,1-2.7,0,6.71,6.71,0,0,1-2.8-.6,3,3,0,0,1-1.7-2.1,5.48,5.48,0,0,1,.4-2.8,7.76,7.76,0,0,1,1.6-2.4,3.6,3.6,0,0,1,1.2-.8,1.9,1.9,0,0,1,1.3-.1h.4c.3-.1.6-.4.5-.7h0c-.1-.3-.4-.6-.7-.5h-.1a4.59,4.59,0,0,0-1.6.7A12,12,0,0,0,82,4.21a8.52,8.52,0,0,0-1.7,2.5,4.45,4.45,0,0,0-.4,3,2.67,2.67,0,0,0,.7,1.4,3.45,3.45,0,0,0,1.2.9,9.47,9.47,0,0,0,2.9.7,10.45,10.45,0,0,0,2.5,0h.9c1.8-.2,3.7-.4,5.5-.7.6-.1,1.1-.3,1.7-.4-.1.3-.1.7-.3,1.4-.7,2.8-1.2,5.4-1.7,7.9-.1.4-.1.8-.2,1.2-.2,1.3-.4,2.5-.6,3.8-.5,3.4-.5,3.6-.3,3.8s.3.2.4.1.1-.1.1-.2.8-4.5,1.8-9.8c.6-3.6,1.2-6.7,1.6-8.4,3.1-.6,6.1-1.3,9.2-1.9a58.14,58.14,0,0,1,5.8-.9,14.05,14.05,0,0,1,2.9,0,3.78,3.78,0,0,1,2.3.8l.1.1a.75.75,0,0,0,.9,0h0a.67.67,0,0,0,0-1Z"/><path class="cls-7" d="M117.5,35.91h0c-2.6-.2-5-.5-7.4-.8l-3.7-.5-3.7-.3-7.4-.6-7.4-.3c-1,0-2.1-.1-3.2-.1H79.3c-2.1,0-4.2-.1-6.2,0l-7.4.2c-1.2,0-2.4.1-3.7.2l-3.7.3A263.84,263.84,0,0,0,29,37.81l-7.3,1.4c-2.4.5-4.8,1-7.3,1.6-4.8,1.1-9.6,2.4-14.3,3.8H0v-.1c4.7-1.6,9.5-3,14.3-4.2l7.2-1.8,7.3-1.6a289.15,289.15,0,0,1,29.4-4.3l3.7-.3,3.7-.3,7.4-.4c1.2-.1,2.5-.1,3.7-.1h8c1,0,2.1.1,3.1.2l7.4.5,7.4.9,3.7.5,3.7.7,7.3,1.5c.1-.1.2-.1.2.1Z"/></g></g></svg>